<svg aria-hidden="true" xmlns="http://www.w3.org/2000/svg" xmlns:xlink="http://www.w3.org/1999/xlink"><symbol viewBox="0 0 16 26" id="arrow" xmlns="http://www.w3.org/2000/svg">
<path fill-rule="evenodd" clip-rule="evenodd" d="M0.781398 1.29196C0.000349045 2.07301 0.000349045 3.33934 0.781398 4.12039L9.73304 13.072L0.781398 22.0237C0.000349045 22.8047 0.000349045 24.071 0.781398 24.8521C1.56245 25.6331 2.82878 25.6331 3.60982 24.8521L15.3899 13.072L3.60982 1.29196C2.82878 0.510915 1.56245 0.510915 0.781398 1.29196Z"/>
</symbol><symbol viewBox="0 0 20 13" id="crown" xmlns="http://www.w3.org/2000/svg">
<path fill-rule="evenodd" clip-rule="evenodd" d="M9.99996 3.69323L0.356822 9.67325L0 9.68506L3.06273 0L5.13652 0.287248L3.33903 5.68302L9.8777 1.80528H9.99996H10.1222L12.1553 3.01098L11.4422 4.55322L9.99996 3.69323ZM10.0647 13.0001L9.84945 12.9998L6.5883 6.34875L8.33968 5.30691L9.98037 8.78875L11.9235 4.84341L11.9222 4.84253L12.6544 3.30707L16.661 5.68302L14.8635 0.287248L16.9374 0L20 9.68506L19.6433 9.67325L13.6381 5.91595L10.0647 13.0001Z"/>
</symbol><symbol viewBox="0 0 24 24" id="phone" xmlns="http://www.w3.org/2000/svg">
<path d="M22.68 16.5067C21.04 16.5067 19.4533 16.24 17.9733 15.76C17.5067 15.6 16.9867 15.72 16.6267 16.08L14.5333 18.7067C10.76 16.9067 7.22667 13.5067 5.34667 9.6L7.94667 7.38667C8.30667 7.01333 8.41333 6.49333 8.26667 6.02667C7.77333 4.54667 7.52 2.96 7.52 1.32C7.52 0.6 6.92 0 6.2 0H1.58667C0.866667 0 0 0.32 0 1.32C0 13.7067 10.3067 24 22.68 24C23.6267 24 24 23.16 24 22.4267V17.8267C24 17.1067 23.4 16.5067 22.68 16.5067Z"/>
</symbol></svg>